
<svg xmlns="http://www.w3.org/2000/svg" width="376.352" height="87.231" viewBox="0 0 376.352 87.231"><g transform="translate(-0.03 0.001)"><path d="M251.92,436.35l2-.14c1.26-.09,2.94-.26,5.05-.51s4.55-.58,7.32-1,5.7-.86,8.77-1.41l-4.95-4.6,3.64-4,7.77,7.22a113.112,113.112,0,0,0,11.76-3.34,51.943,51.943,0,0,0,10-4.57v-1.72H266.84a55,55,0,0,1-6.09,3.34,41.249,41.249,0,0,1-7.39,2.64l-1.3-5.22a34.821,34.821,0,0,0,8.38-3.27,51.868,51.868,0,0,0,6.4-4.09q-5.08,1-8.49,1.34c-2.27.25-3.54.4-3.82.45l-.41-5.43,1.65-.17c1-.12,2.47-.3,4.26-.55s3.87-.6,6.26-1,4.93-1,7.63-1.68l-5.16-5.23,3.79-3.78L279.9,407a96.243,96.243,0,0,0,10.52-3.78,47.8,47.8,0,0,0,9.42-5.3v-.07H265.46a52,52,0,0,1-3.85,4.41,35.392,35.392,0,0,1-5,4.26l-3.09-4.4a34.54,34.54,0,0,0,5-4.47,51.1,51.1,0,0,0,3.71-4.51,48.127,48.127,0,0,0,3.1-5l4.81,2.34a1.79,1.79,0,0,1-.28.62l-.75,1.3h30.73v-1.1h5.43v9.35l-1.1.83a49.622,49.622,0,0,1-6.7,4.26,74.466,74.466,0,0,1-7.46,3.47q-3.86,1.54-7.77,2.75c-2.61.81-5.16,1.51-7.63,2.1l1.17,1.1a13.49,13.49,0,0,1-1.79,1.72h29.29v-1.1h5.43v11.14l-1.17.82a49.3,49.3,0,0,1-9.83,5,106.887,106.887,0,0,1-11.65,3.71q-6,1.55-11.9,2.55t-10.62,1.61c-3.16.41-5.77.7-7.81.86s-3.19.24-3.47.24Z" transform="translate(-133.17 -373.19)" fill="#00274d"/><path d="M327.21,419.57l4.67,2.68-11,19.19-4.74-2.75Zm-7.08-31.08,11.82,9-3.3,4.33-11.76-9Zm0,14.51L332,412l-3.3,4.26-11.76-9Zm53.9-3.78c-.18.09-1.19.74-3,2a75.938,75.938,0,0,1-8.12,4.43l14.79,5.23-1.79,5.09-20.15-7.15q-4.32,1.79-9.52,3.5t-11.45,3.23l-1.3-5.22q4-1,7.63-2.06c2.38-.74,4.65-1.49,6.8-2.27l-10.52-3.71,1.79-5.09,16.42,5.8a89.355,89.355,0,0,0,9.07-4.43c2.34-1.36,4-2.35,5-3v-.28H335.94v-5.43H369.7V388.7h5.36v9.69ZM358.56,430.5h18.91v5.44H358.56v5.57h-5.43v-5.57H334.22V430.5h18.91v-6.39H338v-5.43h15.13v-6.05h5.43v6.05h15.13v5.43H358.56Z" transform="translate(-133.17 -373.19)" fill="#00274d"/><path d="M381.73,442l-1.3-5.23,3.3-.82V415h5.43v19.6l3.37-.82V410.5h-10V390.83H400.2v-1.72h5.43v15.2a6,6,0,0,1-1.79,4.36,5.91,5.91,0,0,1-4.4,1.83H398v6.94h6.67v5.43H398v9.56l7.29-1.86,1.31,5.3ZM388,405.06h11.48a.67.67,0,0,0,.76-.75v-8.05H388Zm42.36-6.46,14.23,8.25-2.75,4.75-3.16-1.86v4.81h-26.2V409.6a26.273,26.273,0,0,1-3,1.34c-.82.3-1.28.47-1.37.52l-1.79-5.09c.05,0,.55-.19,1.51-.58s2.15-.93,3.54-1.62,2.9-1.54,4.51-2.54a24.912,24.912,0,0,0,4.33-3.44H407.38v-5.43h15.4V388.7h5.43v4.06h15.2v5.43h-16.3a21.247,21.247,0,0,1-2.88,3.57,31.509,31.509,0,0,1-3.51,3,39.64,39.64,0,0,1-3.75,2.47c-1.26.74-2.44,1.38-3.54,1.93l24.2-.07-10-5.84Zm12.85,24.55h-22.9L418,427.27h16.71V425.9h5.43v10a6.11,6.11,0,0,1-6.19,6.19H414.19v-5.44h19.73c.5,0,.76-.27.76-.81V432.7h-23v-5l2.48-4.54H407v-5.44h10.11l.06-.06v.06H443.2Z" transform="translate(-133.17 -373.19)" fill="#00274d"/><path d="M455.24,432.15V405.06H449v-5.43h6.26v-8.94h5.43v8.94h6.25v5.43h-6.25V430l5.5-2.2,2,5-18.42,7.43-2-5Zm48.95.21h5.36v3a6.07,6.07,0,0,1-1.78,4.44,6,6,0,0,1-4.4,1.81H492.71V430.92h-8.8a24.892,24.892,0,0,1-2,2.64,23.813,23.813,0,0,1-3.13,3,29.727,29.727,0,0,1-4.4,2.93,28.449,28.449,0,0,1-5.84,2.37L467,436.69a22.211,22.211,0,0,0,6-2.61,25.721,25.721,0,0,0,4-3.16h-4.81V411.18h27.16v-.89h5.43v14.44a6.23,6.23,0,0,1-6.19,6.19h-.41v5.22h5.23a.72.72,0,0,0,.82-.82Zm3.71-23.58H468.51v-5.44l7.22.07-1.72-3.5,4.88-2.41,2.89,5.84,13.27.07,3.23-5.7,4.67,2.61-1.72,3.09,6.67-.07Zm-37.33-16.92h14.51l-1.17-2.27,4.81-2.47,2.41,4.74h14.92v5.43H470.57Zm7,24.76V418H499.3v-1.37Zm21,8.87a.67.67,0,0,0,.76-.76v-1.31H477.58v2.07Z" transform="translate(-133.17 -373.19)" fill="#00274d"/><path d="M178.66,443.12a1.58,1.58,0,0,0-2.25,0,29.88,29.88,0,0,1-25.5,8.43A42.672,42.672,0,0,0,156.3,455a32.94,32.94,0,0,0,21.24-8.58A32.9,32.9,0,0,0,198.78,455a44.144,44.144,0,0,0,5.39-3.47A29.89,29.89,0,0,1,178.66,443.12Z" transform="translate(-133.17 -373.19)" fill="#00274d"/><path d="M176.41,457a29.688,29.688,0,0,1-3.72,3.15,43.393,43.393,0,0,0,4.73.27l.12-.1a.52.52,0,0,1,.11.1,43.7,43.7,0,0,0,4.74-.27,29.078,29.078,0,0,1-3.73-3.15,1.59,1.59,0,0,0-2.25,0Z" transform="translate(-133.17 -373.19)" fill="#00274d"/><path d="M178.66,373.66a1.58,1.58,0,0,0-2.25,0,29.93,29.93,0,0,1-27.08,8.16,32.39,32.39,0,0,0-2.87,2.59,33.6,33.6,0,0,0,8.79,1.18A33,33,0,0,0,177.54,377a33,33,0,0,0,22.28,8.61,33.552,33.552,0,0,0,8.79-1.18c-.92-.91-1.87-1.77-2.87-2.59a29.94,29.94,0,0,1-27.08-8.18Z" transform="translate(-133.17 -373.19)" fill="#00274d"/><path d="M209.07,393.82h-3.6v-3.24A63.3,63.3,0,0,0,188.31,394a29.619,29.619,0,0,1-9.65-6.45,1.59,1.59,0,0,0-2.25,0,30,30,0,0,1-36.28,4.67c-.57.89-1.11,1.79-1.62,2.72a33.15,33.15,0,0,0,39-4.07,32.84,32.84,0,0,0,6.7,4.73,62.879,62.879,0,0,0-19.31,13,30,30,0,0,1-29.65-6c-.36,1.12-.67,2.25-.94,3.4A33.1,33.1,0,0,0,161,412.87,63.1,63.1,0,0,0,153.43,424a29.81,29.81,0,0,1-19.34-8.69,1.57,1.57,0,0,0-.89-.44v1.18a26.858,26.858,0,0,0,.1,2.84,32.94,32.94,0,0,0,18.64,8.18,63.1,63.1,0,0,0-3.64,10.06,29.68,29.68,0,0,1-12.63-6.48,43.857,43.857,0,0,0,2.46,5.71,33.14,33.14,0,0,0,39.44-3.84A33.14,33.14,0,0,0,217,436.38a43.358,43.358,0,0,0,2.45-5.72,30,30,0,0,1-29.88,5.5,63.247,63.247,0,0,0,7.83-9c.81.06,1.63.09,2.44.09a33,33,0,0,0,22-8.34c.06-.95.1-1.9.1-2.85v-1.18a1.63,1.63,0,0,0-.89.44,29.78,29.78,0,0,1-21.52,8.74A62.343,62.343,0,0,0,205,413a33,33,0,0,0,15.71-7q-.4-1.73-.93-3.39a29.739,29.739,0,0,1-13.57,6.95,61.913,61.913,0,0,0,2.43-11.21,33.121,33.121,0,0,0,7.9-3.34c-.51-.94-1.06-1.84-1.63-2.73a30,30,0,0,1-5.94,2.65C209,394.51,209.06,394.17,209.07,393.82ZM194.22,407a3.61,3.61,0,1,1,3.61-3.61,3.61,3.61,0,0,1-3.61,3.61Z" transform="translate(-133.17 -373.19)" fill="#00274d"/></g></svg>